<svg xmlns="http://www.w3.org/2000/svg" width="19.001" height="15" viewBox="0 0 19.001 15"><g transform="translate(-0.001 -3)"><path d="M9.5,15a1.5,1.5,0,0,1-1.061-2.56c.4-.4,4.252-3.064,5.019-3.594a.5.5,0,0,1,.695.695c-.529.768-3.191,4.617-3.594,5.019A1.491,1.491,0,0,1,9.5,15Zm2.239-3.739c-1.345.945-2.436,1.73-2.593,1.886a.5.5,0,0,0,.708.707C10.009,13.7,10.8,12.606,11.739,11.261Z" fill="#a5a4bf"/><path d="M16.218,5.783A9.5,9.5,0,0,0,1.6,17.778.5.5,0,0,0,2.017,18H16.986a.5.5,0,0,0,.416-.222A9.5,9.5,0,0,0,16.22,5.783ZM16.712,17H2.287a8.453,8.453,0,0,1-1.273-4H1.5a.5.5,0,1,0,0-1H1.014A8.511,8.511,0,0,1,9,4.015V4.5a.5.5,0,0,0,1,0V4.015A8.511,8.511,0,0,1,17.984,12H17.5a.5.5,0,0,0,0,1h.485a8.453,8.453,0,0,1-1.273,4Z" fill="#a5a4bf"/></g></svg>