<svg xmlns="http://www.w3.org/2000/svg" width="16.849" height="18" viewBox="0 0 16.849 18"><g transform="translate(-18 -281)"><path d="M8,20a2,2,0,1,1,2-2A2,2,0,0,1,8,20Zm0-3a1,1,0,1,0,1,1A1,1,0,0,0,8,17Z" transform="translate(17 279)" fill="#a5a4bf"/><path d="M15,20a2,2,0,1,1,2-2A2,2,0,0,1,15,20Zm0-3a1,1,0,1,0,1,1A1,1,0,0,0,15,17Z" transform="translate(17 279)" fill="#a5a4bf"/><path d="M17.539,4.467A1.351,1.351,0,0,0,16.5,4H4.257l-.1-.6A1.718,1.718,0,0,0,2.5,2h-1a.5.5,0,0,0,0,1h1a.724.724,0,0,1,.671.569L4.842,13.6A1.718,1.718,0,0,0,6.5,15h10a.5.5,0,0,0,0-1H6.5a.724.724,0,0,1-.671-.569l-.247-1.48,9.965-.867A1.86,1.86,0,0,0,17.158,9.6l.671-4.027a1.354,1.354,0,0,0-.289-1.1Zm-.7.937-.671,4.027a.869.869,0,0,1-.711.657l-10.043.873L4.423,5H16.5a.349.349,0,0,1,.276.113.355.355,0,0,1,.066.291Z" transform="translate(17 279)" fill="#a5a4bf"/></g></svg>