<svg xmlns="http://www.w3.org/2000/svg" width="19.998" height="20.001" viewBox="0 0 19.998 20.001"><g transform="translate(0 0.001)"><path d="M19.5,20H.5a.5.5,0,0,1-.5-.5V.5A.5.5,0,0,1,.947.276l1,2a.5.5,0,0,1-.895.447L1,2.617V19H17.381l-.106-.053a.5.5,0,1,1,.447-.9l2,1A.5.5,0,0,1,19.5,20Z" fill="#a5a4bf"/><path d="M17,4.5a1.5,1.5,0,1,0-2.421,1.182L12.473,12a1.489,1.489,0,0,0-.764.226L8.917,9.992a1.5,1.5,0,1,0-2.5.547L4.686,14.011A1.414,1.414,0,0,0,4.5,14a1.5,1.5,0,1,0,1.079.46l1.736-3.472A1.414,1.414,0,0,0,7.5,11a1.483,1.483,0,0,0,.791-.227l2.792,2.234a1.5,1.5,0,1,0,2.337-.69L15.527,6A1.5,1.5,0,0,0,17,4.5ZM15.5,4a.5.5,0,1,1-.5.5A.5.5,0,0,1,15.5,4Zm-8,5a.5.5,0,1,1-.5.5A.5.5,0,0,1,7.5,9Zm-3,7a.5.5,0,1,1,.5-.5A.5.5,0,0,1,4.5,16Zm8-2a.5.5,0,1,1,.5-.5A.5.5,0,0,1,12.5,14Z" fill="#a5a4bf"/></g></svg>