<svg xmlns="http://www.w3.org/2000/svg" width="18" height="19" viewBox="0 0 18 19"><g transform="translate(-1 -1)"><path d="M16.423,11.563C17.571,10.516,19,9.214,19,7a2,2,0,0,0-3.038-1.709C15.992,4.545,16,3.925,16,3.5c0-.538-.337-1.3-1.94-1.884A12.314,12.314,0,0,0,10,1a12.314,12.314,0,0,0-4.06.616C4.337,2.2,4,2.962,4,3.5c0,.425.007,1.045.038,1.791A2,2,0,0,0,1,7c0,2.214,1.429,3.517,2.577,4.563C4.34,12.259,5,12.86,5,13.5a.5.5,0,0,1-1,0,.5.5,0,0,0-1,0,1.5,1.5,0,0,0,2.688.915,8.765,8.765,0,0,0,.939,1.7A4.078,4.078,0,0,0,10,18a4.075,4.075,0,0,0,3.373-1.889,8.735,8.735,0,0,0,.939-1.7A1.5,1.5,0,0,0,17,13.5a.5.5,0,0,0-1,0,.5.5,0,0,1-1,0c0-.64.659-1.241,1.423-1.937ZM6.282,2.556A11.309,11.309,0,0,1,10,2a11.283,11.283,0,0,1,3.718.556C14.6,2.878,15,3.262,15,3.5s-.4.622-1.282.944A11.309,11.309,0,0,1,10,5a11.283,11.283,0,0,1-3.718-.556C5.4,4.122,5,3.738,5,3.5s.4-.622,1.282-.944ZM2,7A1,1,0,0,1,4,7a1.126,1.126,0,0,1-.667,1.029.5.5,0,0,0,.333.943A1.84,1.84,0,0,0,4.3,8.589c.105.878.245,1.788.434,2.678-.155-.148-.316-.294-.479-.443C3.143,9.815,2,8.772,2,7Zm10.564,8.523A3.091,3.091,0,0,1,10,17a3.091,3.091,0,0,1-2.564-1.477,10.989,10.989,0,0,1-1.575-3.8,34.89,34.89,0,0,1-.835-6.767,5.3,5.3,0,0,0,.914.425A12.314,12.314,0,0,0,10,6a12.314,12.314,0,0,0,4.06-.616,5.261,5.261,0,0,0,.914-.425,34.8,34.8,0,0,1-.835,6.767,11.017,11.017,0,0,1-1.575,3.8Zm2.706-4.256c.189-.89.33-1.8.434-2.678a1.855,1.855,0,0,0,.629.383.5.5,0,1,0,.333-.943A1.125,1.125,0,0,1,16,7a1,1,0,0,1,2,0c0,1.772-1.144,2.816-2.251,3.824-.163.148-.324.3-.479.443Z" fill="#a5a4bf"/><path d="M10,20a6.972,6.972,0,0,1-2.672-.48C6.172,19.025,6,18.355,6,18a1.278,1.278,0,0,1,.314-.818.5.5,0,1,1,.772.636A.308.308,0,0,0,7,18c0,.353,1.139,1,3,1s3-.647,3-1a.308.308,0,0,0-.085-.182.5.5,0,1,1,.772-.636A1.288,1.288,0,0,1,14,18c0,.355-.173,1.025-1.328,1.52A6.991,6.991,0,0,1,10,20Z" fill="#a5a4bf"/></g></svg>