<svg xmlns="http://www.w3.org/2000/svg" width="19" height="20" viewBox="0 0 19 20"><path d="M19,4.455a.067.067,0,0,0,0-.014c0-.011,0-.021,0-.032l0-.014c0-.014-.006-.027-.01-.04s0-.01,0-.014a.2.2,0,0,0-.01-.026.077.077,0,0,0-.007-.016.21.21,0,0,0-.013-.026l-.006-.012-.021-.035a.076.076,0,0,0-.008-.011.235.235,0,0,0-.019-.025l-.008-.01c-.008-.01-.017-.019-.026-.029l0,0-.032-.029-.009-.007-.025-.019-.012-.008a.261.261,0,0,0-.028-.017l-.01-.006L18.7,4.046l-.007,0h0L9.7.046a.5.5,0,0,0-.406,0l-8.991,4h0l-.007,0-.033.016-.01.006a.261.261,0,0,0-.028.017l-.012.008-.026.019-.009.007-.032.029,0,0a.358.358,0,0,0-.026.029L.11,4.19C.1,4.2.1,4.207.091,4.215l-.008.011a.25.25,0,0,0-.021.035l-.006.012L.043,4.3l-.007.016c0,.009-.007.018-.01.027s0,.01-.005.014-.007.027-.01.04l0,.014c0,.011,0,.021,0,.032s0,.009,0,.014,0,.03,0,.045v11a.5.5,0,0,0,.3.457l9,4h0a.274.274,0,0,0,.04.015l.008,0,.047.013h0a.488.488,0,0,0,.206,0h0a.362.362,0,0,0,.047-.013l.008,0,.04-.015h0l9-4A.5.5,0,0,0,19,15.5V4.5c0-.015,0-.03,0-.045ZM9.5,1.047,17.269,4.5,9.5,7.953,1.731,4.5,9.5,1.047ZM1,5.269,9,8.825v9.906L1,15.175V5.269Zm9,13.462V8.825l8-3.556v9.906Z" transform="translate(0.001 -0.003)" fill="#a5a4bf"/></svg>