<svg xmlns="http://www.w3.org/2000/svg" width="17" height="15" viewBox="0 0 17 15"><g transform="translate(-1 -4)"><path d="M18,9.5v-1a.5.5,0,0,0-.053-.224l-2-4A.5.5,0,0,0,15.5,4H3.5a.5.5,0,0,0-.447.276l-2,4A.5.5,0,0,0,1,8.5v1a2.5,2.5,0,0,0,1,2V18H1.5a.5.5,0,0,0,0,1h16a.5.5,0,0,0,0-1H17V11.5a2.5,2.5,0,0,0,1-2ZM11.5,11A1.5,1.5,0,0,1,10,9.5V9h3v.5A1.5,1.5,0,0,1,11.5,11ZM2,9.5V9H5v.5a1.5,1.5,0,0,1-3,0ZM9,5V8H6.14l.75-3Zm3.11,0,.75,3H10V5ZM6,9H9v.5a1.5,1.5,0,0,1-3,0Zm8,0h3v.5a1.5,1.5,0,0,1-3,0Zm2.691-1h-2.8l-.75-3h2.051ZM3.809,5H5.86L5.11,8h-2.8ZM3,11.95A2.5,2.5,0,0,0,5.5,11a2.5,2.5,0,0,0,4,0,2.5,2.5,0,0,0,1.5.951V18H3v-6.05ZM16,18H12V11.95A2.5,2.5,0,0,0,13.5,11a2.5,2.5,0,0,0,2.5.952V18Z" fill="#a5a4bf"/><path d="M14,14.5a.5.5,0,1,1-.5-.5A.5.5,0,0,1,14,14.5Z" fill="#a5a4bf"/><path d="M4.5,15a.5.5,0,0,1-.354-.853l1-1a.5.5,0,1,1,.707.707l-1,1A.5.5,0,0,1,4.5,15Z" fill="#a5a4bf"/><path d="M5.5,17a.5.5,0,0,1-.354-.853l3-3a.5.5,0,1,1,.707.707l-3,3A.5.5,0,0,1,5.5,17Z" fill="#a5a4bf"/><path d="M8.5,17a.5.5,0,0,1-.354-.853l1-1a.5.5,0,1,1,.707.707l-1,1A.5.5,0,0,1,8.5,17Z" fill="#a5a4bf"/></g></svg>