<svg xmlns="http://www.w3.org/2000/svg" width="20" height="15.001" viewBox="0 0 20 15.001"><g transform="translate(0 -3)"><path d="M18.5,18H7.5A1.5,1.5,0,0,1,6,16.5a3.982,3.982,0,0,1,.924-2.315,5.261,5.261,0,0,1,2.128-1.522A10.456,10.456,0,0,1,13,12a10.479,10.479,0,0,1,3.948.662,5.261,5.261,0,0,1,2.128,1.522A3.974,3.974,0,0,1,20,16.5,1.5,1.5,0,0,1,18.5,18ZM7,16.5a.5.5,0,0,0,.5.5h11a.5.5,0,0,0,.5-.5,3.05,3.05,0,0,0-.739-1.734C17.287,13.612,15.468,13,13,13s-4.287.612-5.261,1.768A3.052,3.052,0,0,0,7,16.5Z" fill="#a5a4bf"/><path d="M13,11a4,4,0,1,1,4-4A4,4,0,0,1,13,11Zm0-7a3,3,0,1,0,3,3A3,3,0,0,0,13,4Z" fill="#a5a4bf"/><path d="M4.5,18h-3A1.5,1.5,0,0,1,0,16.5a3.261,3.261,0,0,1,.663-1.8A3.808,3.808,0,0,1,2.2,13.512,6.914,6.914,0,0,1,5,13c.179,0,.356.005.527.014a.5.5,0,1,1-.053,1C5.322,14,5.163,14,5,14c-3.894,0-4,2.379-4,2.5a.5.5,0,0,0,.5.5h3a.5.5,0,0,1,0,1Z" fill="#a5a4bf"/><path d="M5,12A3,3,0,1,1,8,9,3,3,0,0,1,5,12ZM5,7A2,2,0,1,0,7,9,2,2,0,0,0,5,7Z" fill="#a5a4bf"/></g></svg>