<svg xmlns="http://www.w3.org/2000/svg" viewBox="0 0 109.859 33.744">
  <defs>
  </defs>
  <path data-name="Path 3278" d="M2670.972,2010.222a3.443,3.443,0,0,1-1.651-.384,2.765,2.765,0,0,1-1.11-1.074,3.155,3.155,0,0,1-.4-1.59v-2.568a3.1,3.1,0,0,1,.4-1.572,2.739,2.739,0,0,1,1.11-1.062,3.816,3.816,0,0,1,3.312,0,2.748,2.748,0,0,1,1.111,1.062,3.1,3.1,0,0,1,.4,1.572v2.568a3.186,3.186,0,0,1-.4,1.6,2.726,2.726,0,0,1-1.111,1.075A3.516,3.516,0,0,1,2670.972,2010.222Zm0-7.177a1.4,1.4,0,0,0-1.062.427,1.572,1.572,0,0,0-.4,1.121v2.641a1.553,1.553,0,0,0,.4,1.116,1.406,1.406,0,0,0,1.062.419,1.427,1.427,0,0,0,1.067-.419,1.54,1.54,0,0,0,.409-1.116v-2.641a1.573,1.573,0,0,0-.4-1.121A1.413,1.413,0,0,0,2670.972,2003.045Zm-29.58,7.177a3.44,3.44,0,0,1-1.65-.384,2.774,2.774,0,0,1-1.111-1.074,3.155,3.155,0,0,1-.4-1.59v-2.568a3.1,3.1,0,0,1,.4-1.572,2.748,2.748,0,0,1,1.111-1.062,3.816,3.816,0,0,1,3.312,0,2.739,2.739,0,0,1,1.11,1.062,3.1,3.1,0,0,1,.4,1.572v2.568a3.186,3.186,0,0,1-.4,1.6,2.717,2.717,0,0,1-1.11,1.075A3.518,3.518,0,0,1,2641.392,2010.222Zm0-7.177a1.4,1.4,0,0,0-1.062.427,1.572,1.572,0,0,0-.4,1.121v2.641a1.553,1.553,0,0,0,.4,1.116,1.409,1.409,0,0,0,1.062.419,1.431,1.431,0,0,0,1.068-.419,1.541,1.541,0,0,0,.408-1.116v-2.641a1.573,1.573,0,0,0-.4-1.121A1.413,1.413,0,0,0,2641.392,2003.045Zm46.08,7.141a3.551,3.551,0,0,1-1.644-.366,2.636,2.636,0,0,1-1.092-1.026,2.982,2.982,0,0,1-.384-1.524V2004.5a2.985,2.985,0,0,1,.384-1.525,2.606,2.606,0,0,1,1.092-1.02,3.6,3.6,0,0,1,1.644-.36,3.689,3.689,0,0,1,1.626.342,2.59,2.59,0,0,1,1.092.972,2.727,2.727,0,0,1,.39,1.458c0,.072-.049.116-.144.132l-1.4.084h-.023c-.08,0-.121-.045-.121-.132a1.371,1.371,0,0,0-.39-1.02,1.407,1.407,0,0,0-1.026-.384,1.424,1.424,0,0,0-1.038.384,1.371,1.371,0,0,0-.391,1.02v2.893a1.359,1.359,0,0,0,.391,1.008,1.423,1.423,0,0,0,1.038.383,1.406,1.406,0,0,0,1.026-.383,1.359,1.359,0,0,0,.39-1.008c0-.088.048-.132.144-.132l1.4.06a.152.152,0,0,1,.1.036.105.105,0,0,1,.042.084,2.756,2.756,0,0,1-.39,1.464,2.622,2.622,0,0,1-1.092.984A3.631,3.631,0,0,1,2687.472,2010.186Zm-53.352,0a3.551,3.551,0,0,1-1.644-.366,2.644,2.644,0,0,1-1.092-1.026,2.985,2.985,0,0,1-.384-1.524V2004.5a2.988,2.988,0,0,1,.384-1.525,2.614,2.614,0,0,1,1.092-1.02,3.6,3.6,0,0,1,1.644-.36,3.689,3.689,0,0,1,1.626.342,2.59,2.59,0,0,1,1.092.972,2.725,2.725,0,0,1,.39,1.458c0,.073-.047.116-.144.132l-1.4.084h-.023c-.08,0-.121-.045-.121-.132a1.37,1.37,0,0,0-.39-1.02,1.407,1.407,0,0,0-1.026-.384,1.424,1.424,0,0,0-1.038.384,1.371,1.371,0,0,0-.391,1.02v2.893a1.359,1.359,0,0,0,.391,1.008,1.423,1.423,0,0,0,1.038.383,1.406,1.406,0,0,0,1.026-.383,1.358,1.358,0,0,0,.39-1.008c0-.088.048-.132.144-.132l1.4.06a.153.153,0,0,1,.1.036.1.1,0,0,1,.042.084,2.753,2.753,0,0,1-.39,1.464,2.621,2.621,0,0,1-1.092.984A3.631,3.631,0,0,1,2634.12,2010.186Zm92.46-.1h-5.544a.136.136,0,0,1-.1-.042.138.138,0,0,1-.042-.1v-8.112a.142.142,0,0,1,.042-.1.138.138,0,0,1,.1-.041h5.544a.138.138,0,0,1,.1.041.141.141,0,0,1,.042.1V2003a.138.138,0,0,1-.042.1.136.136,0,0,1-.1.042h-3.936a.053.053,0,0,0-.06.06v1.859a.053.053,0,0,0,.06.06h2.58a.144.144,0,0,1,.144.144v1.164a.143.143,0,0,1-.144.144h-2.58a.053.053,0,0,0-.06.06v1.944a.053.053,0,0,0,.06.06h3.936a.138.138,0,0,1,.1.041.141.141,0,0,1,.042.1v1.164a.138.138,0,0,1-.042.1A.136.136,0,0,1,2726.58,2010.09Zm-6.912,0h-1.476a.169.169,0,0,1-.167-.108l-1.5-3.324a.077.077,0,0,0-.072-.049h-1.116a.054.054,0,0,0-.06.06v3.276a.138.138,0,0,1-.042.1.136.136,0,0,1-.1.042h-1.4a.144.144,0,0,1-.144-.144v-8.112a.142.142,0,0,1,.042-.1.139.139,0,0,1,.1-.041h3.433a2.827,2.827,0,0,1,1.35.311,2.207,2.207,0,0,1,.9.888,2.732,2.732,0,0,1,.318,1.332,2.384,2.384,0,0,1-.408,1.4,2.185,2.185,0,0,1-1.14.823.057.057,0,0,0-.036.084l1.632,3.4a.189.189,0,0,1,.024.072C2719.8,2010.058,2719.757,2010.09,2719.668,2010.09Zm-4.332-6.948a.053.053,0,0,0-.06.06v2.052a.053.053,0,0,0,.06.059h1.572a1.156,1.156,0,0,0,.822-.3,1.026,1.026,0,0,0,.318-.78,1.046,1.046,0,0,0-.318-.786,1.141,1.141,0,0,0-.822-.306Zm-5.268,6.948h-1.4a.136.136,0,0,1-.1-.042.138.138,0,0,1-.042-.1v-6.732a.054.054,0,0,0-.06-.06h-2.088a.14.14,0,0,1-.1-.041.136.136,0,0,1-.042-.1v-1.175a.143.143,0,0,1,.144-.144h6.048a.138.138,0,0,1,.1.041.142.142,0,0,1,.042.1v1.175a.141.141,0,0,1-.042.1.139.139,0,0,1-.1.041h-2.148a.054.054,0,0,0-.06.06v6.732a.143.143,0,0,1-.143.144Zm-4.992,0h-1.356a.171.171,0,0,1-.167-.1l-3.108-5.135c-.014-.021-.028-.031-.042-.031h-.006c-.016,0-.024.023-.024.054l.024,5.064a.138.138,0,0,1-.042.1.136.136,0,0,1-.1.042h-1.4a.136.136,0,0,1-.1-.042.138.138,0,0,1-.042-.1v-8.112a.142.142,0,0,1,.042-.1.138.138,0,0,1,.1-.041h1.356a.171.171,0,0,1,.167.1l3.1,5.112c.014.021.028.031.042.031h.006c.016,0,.023-.023.023-.054l-.012-5.04a.143.143,0,0,1,.144-.144h1.4a.138.138,0,0,1,.1.041.142.142,0,0,1,.042.1v8.112a.138.138,0,0,1-.042.1A.136.136,0,0,1,2705.076,2010.09Zm-7.632,0H2691.9a.136.136,0,0,1-.1-.042.138.138,0,0,1-.042-.1v-8.112a.142.142,0,0,1,.042-.1.138.138,0,0,1,.1-.041h5.544a.137.137,0,0,1,.1.041.141.141,0,0,1,.042.1V2003a.137.137,0,0,1-.042.1.135.135,0,0,1-.1.042h-3.936a.053.053,0,0,0-.06.06v1.859a.053.053,0,0,0,.06.06h2.579a.141.141,0,0,1,.1.042.139.139,0,0,1,.041.1v1.164a.141.141,0,0,1-.144.144h-2.579a.053.053,0,0,0-.06.06v1.944a.053.053,0,0,0,.06.06h3.936a.137.137,0,0,1,.1.041.141.141,0,0,1,.042.1v1.164a.137.137,0,0,1-.042.1A.135.135,0,0,1,2697.444,2010.09Zm-16.392,0h-5.532a.135.135,0,0,1-.1-.042.137.137,0,0,1-.042-.1v-8.112a.142.142,0,0,1,.042-.1.137.137,0,0,1,.1-.041h1.4a.139.139,0,0,1,.1.041.142.142,0,0,1,.042.1v6.744a.053.053,0,0,0,.06.06h3.924a.138.138,0,0,1,.1.041.142.142,0,0,1,.042.1v1.164a.138.138,0,0,1-.042.1A.136.136,0,0,1,2681.052,2010.09Zm-14.292,0h-1.476a.17.17,0,0,1-.168-.108l-1.5-3.324a.076.076,0,0,0-.072-.049h-1.116a.053.053,0,0,0-.059.06v3.276a.144.144,0,0,1-.144.144h-1.4a.136.136,0,0,1-.1-.042.138.138,0,0,1-.042-.1v-8.112a.141.141,0,0,1,.042-.1.138.138,0,0,1,.1-.041h3.432a2.829,2.829,0,0,1,1.35.311,2.2,2.2,0,0,1,.9.888,2.721,2.721,0,0,1,.318,1.332,2.385,2.385,0,0,1-.408,1.4,2.179,2.179,0,0,1-1.14.823.065.065,0,0,0-.039.034.064.064,0,0,0,0,.05l1.633,3.4a.2.2,0,0,1,.023.072C2666.892,2010.058,2666.849,2010.09,2666.76,2010.09Zm-4.333-6.948a.053.053,0,0,0-.059.06v2.052a.053.053,0,0,0,.059.059H2664a1.153,1.153,0,0,0,.822-.3,1.027,1.027,0,0,0,.319-.78,1.047,1.047,0,0,0-.319-.786,1.138,1.138,0,0,0-.822-.306Zm-5.268,6.948h-1.4a.137.137,0,0,1-.1-.042.135.135,0,0,1-.042-.1v-6.732a.053.053,0,0,0-.06-.06h-2.088a.139.139,0,0,1-.1-.041.141.141,0,0,1-.042-.1v-1.175a.142.142,0,0,1,.042-.1.138.138,0,0,1,.1-.041h6.048a.142.142,0,0,1,.144.144v1.175a.138.138,0,0,1-.042.1.141.141,0,0,1-.1.041h-2.147a.053.053,0,0,0-.06.06v6.732a.138.138,0,0,1-.042.1A.136.136,0,0,1,2657.16,2010.09Zm-4.992,0h-1.355a.171.171,0,0,1-.168-.1l-3.107-5.135c-.014-.021-.028-.031-.042-.031h-.006c-.016,0-.023.022-.023.054l.023,5.064a.137.137,0,0,1-.042.1.139.139,0,0,1-.1.042h-1.4a.136.136,0,0,1-.1-.042.137.137,0,0,1-.042-.1v-8.112a.142.142,0,0,1,.042-.1.138.138,0,0,1,.1-.041h1.356a.171.171,0,0,1,.168.1l3.1,5.112c.013.021.027.031.042.031h.006c.016,0,.024-.023.024-.054l-.012-5.04a.142.142,0,0,1,.042-.1.138.138,0,0,1,.1-.041h1.4a.142.142,0,0,1,.144.144v8.112a.137.137,0,0,1-.042.1A.139.139,0,0,1,2652.168,2010.09Zm-20.246-12.677h0c.261-3.232.367-6.8.334-11.244-.018-2.632-.1-5.282-.257-7.875.7-.017,1.411-.04,2.1-.061h.077c.776-.024,1.578-.049,2.367-.068.279-.01.563-.023.837-.036h.01c.539-.025,1.1-.051,1.633-.055.938,0,3.879,3.19,4.463,3.943a6.8,6.8,0,0,1,1.068,1.749,11.476,11.476,0,0,1-2.687,4.945.719.719,0,0,1-.156.124c-.1.066-.2.127-.194.269a3.4,3.4,0,0,0,.181.634,56.169,56.169,0,0,0,3.5,7.461l-4.7.107c-.236-.349-.7-1.237-1.23-2.265-1.025-1.975-2.3-4.432-2.749-4.556a16.019,16.019,0,0,0-.136,2.512c-.016.727-.028,1.468-.038,2.121v.058c-.011.7-.022,1.425-.039,2.137l-4.387.106Zm4.521-14.887v.007c-.1,1.005-.2,2.045-.217,3.068a12.523,12.523,0,0,0,.213,2.241,5.1,5.1,0,0,0,2.813-2.556,2.267,2.267,0,0,0,.192-.758l.022-.025a2.3,2.3,0,0,0-.2-.485,3.526,3.526,0,0,0-2.7-1.488h-.013Zm99.918,14.781h0a15.263,15.263,0,0,1-3.887-3.286l.19-.128.016-.011c1.221-.817,2.895-1.937,2.882-3.713a5.272,5.272,0,0,0-1.333-3.3,6.976,6.976,0,0,1-1.666-4.578c-.026-3.492,3.032-5.227,4.348-5.811a18.305,18.305,0,0,1,3.618,2.462l.04.032.269.214a3.979,3.979,0,0,0-2.693,4.06,5.863,5.863,0,0,0,1.174,3.28,8.327,8.327,0,0,1,1.542,4.87c0,.069-.116.5-.194.791l0,.01c-.028.1-.053.2-.06.227a8.2,8.2,0,0,1-4.242,4.882Zm-71.783-.006-.114,0c-.069,0-.134-.01-.2-.02-.215-.144-2.224-7.948-2.5-9.054-.838-2.887-1.781-5.957-3.059-9.954a25.439,25.439,0,0,1,4.785-.453l.283,0c.158.518.325,1.044.5,1.6l0,.008a50.224,50.224,0,0,1,1.389,4.939c.008.038.02.108.037.2.129.721.52,2.915.931,2.915.115,0,.245-.36.26-.415a18.547,18.547,0,0,0,.731-2.225c.312-1.013.606-2.048.89-3.049l.01-.033.023-.082q.147-.518.3-1.04a14.336,14.336,0,0,1,.731-2.225,13.951,13.951,0,0,1,2.827-.559c.568,1.495,3.25,7.96,4.061,8.824a.216.216,0,0,1,.044.035.1.1,0,0,0,.066.037.077.077,0,0,1,.021.006.071.071,0,0,0,.023.006.03.03,0,0,0,.023-.011c.356-.276,1.994-7.855,2.152-8.822l5.377-.162c.02.368-1.506,5.651-2.081,7.64-.124.427-.2.693-.228.792h0l0,0c-.751,2.633-1.257,4.683-1.641,6.645-.108.587-.2,1.187-.292,1.767l0,.018c-.119.764-.242,1.554-.4,2.318-.5-.009-1.014-.029-1.505-.049s-1.022-.042-1.546-.051c-.729-1.513-1.549-3.046-2.271-4.4l-.262-.5,0-.007c-.661-1.253-1.344-2.548-2.069-3.771a5.108,5.108,0,0,0-.488-.68c-.071,0-.236.313-.324.48-.021.039-.037.07-.046.084-.6,1.253-1.115,2.579-1.611,3.861l-.115.3-.015.04c-.63,1.625-1.281,3.3-1.857,4.974-.925.007-1.86.039-2.765.07Zm-18.065-.141h0c.082-1.083.106-2.19.129-3.259q.008-.4.018-.789c.03-1.991.037-4.018.021-6.026-.021-2.937-.065-6.058-.352-9.1a30.1,30.1,0,0,0,3.275.179c.3,0,.6,0,.9-.013,1.13-.008,2.28-.042,3.392-.074h.016c1.127-.033,2.292-.066,3.441-.074l.307,0c.156,0,.176.123.2.266.062.3.105.62.144.9.019.136.04.29.062.438l.283,2.436c-.513-.012-1.034-.027-1.54-.041l-.077,0c-1-.029-2.039-.059-3.059-.067a4.165,4.165,0,0,0-1.976.331,10.329,10.329,0,0,0-.287,2.66v.01c0,.282.022.939.117.939h.157c.379,0,.763.008,1.134.016.4.009.792.017,1.191.017h.181a10.245,10.245,0,0,0,3.239-.365c.077.339.211.832.341,1.308a18.144,18.144,0,0,1,.7,3.22c-.77-.039-1.548-.1-2.3-.165l-.155-.013c-1.245-.106-2.53-.215-3.813-.215h-.254c-.214,0-.331,0-.393.065s-.069.228-.064.567c0,.076,0,.158,0,.25.005.779.011,1.585.083,2.34.025.256,1.423.259,1.437.259h.014c.458.015.949.022,1.593.022l.821,0h.007l.766,0c.608,0,1.328,0,2.061.041l.334,3.85c-.7-.037-1.484-.054-2.453-.054-.526,0-1.058,0-1.572.01l-.825.007c-2.417.02-4.854.063-7.242.128Zm49.753-.166h0a32.671,32.671,0,0,0-1.144-3.137c-.1-.14-5.761-.268-6.678-.268h-.1a2.573,2.573,0,0,0-.379.029,17.973,17.973,0,0,0-.621,1.868c-.056.185-.092.3-.109.357a7.415,7.415,0,0,1-.431,1.053q-2.745.019-5.487.041h-.047l-.326,0c.387-1.08.821-2.162,1.241-3.208l.013-.032c.255-.637.519-1.3.77-1.947l.053-.134c1.084-2.745,2.206-5.583,3.287-8.4l.011-.03c.484-1.242.984-2.525,1.453-3.835a4.6,4.6,0,0,0,.193-.585c.014-.042.032-.108.053-.191.075-.284.2-.759.354-.837.409.032.826.048,1.241.048.222,0,.447,0,.669-.014l2.371-.016c.069,0,.139.006.209.006a3.446,3.446,0,0,0,.647-.061c.115.107.885,2.087,1.345,3.269l0,.008c.163.421.273.7.307.782,1.086,2.737,2.351,5.436,3.575,8.047l.007.015c.363.774.738,1.574,1.1,2.366.406.867.84,1.789,1.293,2.7q.111.208.224.415c.239.442.485.9.689,1.359a14.582,14.582,0,0,1-2.3.237C2698.545,1996.953,2697.372,1996.985,2696.264,1996.993Zm-5.15-13.62h0a4.086,4.086,0,0,0-.519,1.2c-.207.549-1.418,4.086-1.416,4.449,0,.422,2.236.444,2.683.444h.063a9.383,9.383,0,0,0,2-.186.012.012,0,0,0,.01,0c.013-.013.012-.057.011-.071l-.022,0c0-.674-2.121-4.711-2.543-5.421a1.775,1.775,0,0,0-.264-.411Zm11.791,13.517h0c.26-3.234.367-6.807.335-11.244-.019-2.6-.1-5.246-.256-7.876.734-.017,1.481-.041,2.2-.064h.022c.719-.023,1.534-.049,2.317-.067.268-.01.537-.023.813-.036h.008c.548-.026,1.115-.052,1.659-.056.934,0,3.878,3.19,4.462,3.943a6.793,6.793,0,0,1,1.067,1.749,11.456,11.456,0,0,1-2.686,4.945.742.742,0,0,1-.156.124c-.1.065-.194.127-.193.27a3.411,3.411,0,0,0,.179.634,55.551,55.551,0,0,0,3.5,7.458l-4.695.11c-.235-.349-.695-1.234-1.227-2.259-1.028-1.98-2.3-4.44-2.753-4.565a16.2,16.2,0,0,0-.134,2.513c-.017.723-.028,1.459-.039,2.17v.1c-.01.67-.021,1.363-.037,2.044l-4.389.107Zm4.522-14.886c-.1,1-.2,2.034-.219,3.073a12.765,12.765,0,0,0,.214,2.242,5.1,5.1,0,0,0,2.813-2.557,2.292,2.292,0,0,0,.194-.757l.021-.025a2.377,2.377,0,0,0-.2-.486,3.515,3.515,0,0,0-2.7-1.486h-.014Zm11.916,14.692c-.28,0-.563-.007-.842-.022-.333-.017-.678-.047-1.026-.087a72.217,72.217,0,0,0,.348-9.221c-.023-3.371-.172-6.61-.443-9.628,1.5-.136,3.039-.166,4.526-.195h.011l.817-.016c.267-.014.537-.021.8-.021.332,0,.667.011,1,.033a6.542,6.542,0,0,1,1.828.79,13.021,13.021,0,0,1,3.87,3.578,10.325,10.325,0,0,1,2.054,5.037l-.021,0c-1.153,4.6-4.939,7.354-7.093,8.589a16.8,16.8,0,0,1-1.858.965c-.136.051-1.681.114-2.7.156-.475.019-.85.035-.96.043Zm3.159-14.9h0a17.1,17.1,0,0,0-.579,4.857c.013,1.913.311,3.24.886,3.945a12.145,12.145,0,0,0,1.9-1.015c.99-.7,2.859-2.308,2.85-3.435a2.587,2.587,0,0,0-.357-.851,8.427,8.427,0,0,0-4.7-3.5Z" transform="translate(-2631 -1976.478)"/>
</svg>
