<svg xmlns="http://www.w3.org/2000/svg" viewBox="0 0 223.914 68.727"><g transform="translate(-158.357 25.513)"><g transform="translate(161.153 -36.172) rotate(3)"><path d="M15.747,12.96A4.624,4.624,0,0,0,15.288,12,7.165,7.165,0,0,0,9.428,9.283c-.1,2.083-.2,4.167-.115,6.239a25.594,25.594,0,0,0,.67,4.508A10.355,10.355,0,0,0,15.4,14.565a4.62,4.62,0,0,0,.308-1.553ZM19.2,38.713c-1.5-1.984-7.369-13.058-8.767-13.366a32.322,32.322,0,0,0-.007,5.092c.086,2.913.215,5.82.3,8.733l-8.86.681c.214-7.579-.065-15.226-.517-22.766C1.035,11.766.584,6.45,0,1.2,3.057.959,6.112.68,9.168.449,10.851.3,12.532.1,14.172,0c1.863-.111,8.1,5.943,9.439,7.5a13.769,13.769,0,0,1,2.341,3.421A23.128,23.128,0,0,1,21.046,21.2c-.25.315-.69.387-.665.83a6.978,6.978,0,0,0,.433,1.262A111.8,111.8,0,0,0,28.682,38Z" transform="translate(0 13.583)" fill="#19236b"/><path d="M17.031,38.872Q9.712,39.313,2.4,39.9c.061-2.723-.058-5.485-.134-8.2-.153-4.047-.349-8.093-.594-12.181C1.311,13.406.9,7.248,0,1.169a60.458,60.458,0,0,0,8.448-.107C13.061.786,17.661.313,22.275.037L22.9,0c.311-.02.369.222.431.517.229.876.376,1.8.561,2.687L24.715,8.1c-3.154.091-6.309.132-9.463.271-.888.054-3.284.2-3.956.878-.423.373-.338,4.718-.3,5.407.009.148.115,1.919.336,1.907,1.775-.1,3.553-.111,5.372-.22,1.6-.1,5.1-.306,6.522-1.082.621,2.186,2.475,7.119,2.589,9.04-4.36.014-8.7-.369-13.048-.11-1.242.079-1.113-.028-1,1.841.093,1.577.188,3.206.413,4.723.074.491,2.651.387,2.96.368,3.556-.065,7.1-.423,10.613-.436l1.083,7.747c-3.247,0-6.526.241-9.808.438" transform="translate(28.929 11.479)" fill="#19236b"/><path d="M47.634,17.294c-1.025,4.461-1.956,8.971-2.614,13.607-.367,2.792-.552,5.62-.969,8.366-2.044.072-4.09.046-6.179.121-1.6-2.918-3.328-5.785-5.057-8.649-1.68-2.815-3.366-5.683-5.173-8.394a10.373,10.373,0,0,0-1.058-1.322c-.179.012-.607,1.025-.688,1.179-1.168,2.79-2.106,5.716-3.047,8.589-1.129,3.43-2.259,6.861-3.254,10.331-1.861.111-3.722.273-5.581.434a4.127,4.127,0,0,1-.759,0c-.461-.273-5.465-16.245-6.017-18.036C4.926,16.877,2.486,10.3,0,3.721a51.266,51.266,0,0,1,10.195-1.45c1.492,4.114,3.42,8.8,4.519,13.032.174.681,1.353,6.249,2.287,6.194.222-.013.447-.719.482-.867a37.757,37.757,0,0,0,1.24-4.574c.719-2.865,1.349-5.72,2.021-8.63a28.831,28.831,0,0,1,1.24-4.574,28.123,28.123,0,0,1,5.654-1.428c1.341,3.038,7.444,15.777,9.143,17.4.091.044.142.14.229.135.046,0,.092.044.134-.007C37.822,18.372,40.329,2.991,40.56.9L51.411,0c.1.885-3.492,16.031-3.773,17.287" transform="translate(53.972 8.184)" fill="#19236b"/><path d="M25.418,23.212c-.079-1.33-4.732-9.212-5.713-10.686-.049-.095-.491-.811-.581-.8A8.286,8.286,0,0,0,18.2,14.2c-.337,1.059-2.435,8.406-2.391,9.142.054.888,4.933.646,5.6.607.575-.037,3.632-.268,4.014-.588.044,0,.039-.1.035-.152Zm12.6,14.923q-3.516.357-7.043.569a65.44,65.44,0,0,0-2.643-6.222c-.237-.281-12.234.09-13.609.17a5.057,5.057,0,0,0-.883.1c-.208.263-1.095,4.022-1.24,4.574a14.979,14.979,0,0,1-.76,2.173q-5.922.353-11.841.71c1.076-3.576,2.376-7.115,3.543-10.7C5.507,23.664,7.474,17.81,9.39,11.909c.867-2.623,1.735-5.245,2.55-7.965a9.1,9.1,0,0,0,.329-1.2c.11-.4.332-1.9.717-2.121A32.514,32.514,0,0,0,16.849.484q2.4-.14,4.788-.283A6.987,6.987,0,0,0,23.364,0c.327.275,3.47,7.406,3.773,8.029,3.222,7.027,6.962,13.728,10.576,20.582.95,1.775,1.9,3.549,2.9,5.316.691,1.147,1.428,2.287,2.033,3.49a29.462,29.462,0,0,1-4.63.722" transform="translate(100.898 7.067)" fill="#19236b"/><path d="M15.748,12.963A4.731,4.731,0,0,0,15.289,12,7.153,7.153,0,0,0,9.431,9.287c-.1,2.081-.2,4.165-.116,6.236a25.614,25.614,0,0,0,.669,4.508A10.353,10.353,0,0,0,15.4,14.565a4.6,4.6,0,0,0,.309-1.551ZM19.2,38.717c-1.5-1.986-7.368-13.059-8.767-13.371a32.5,32.5,0,0,0-.006,5.094c.085,2.911.215,5.821.3,8.733l-8.863.68c.214-7.579-.063-15.227-.514-22.765C1.036,11.767.58,6.451,0,1.2,3.057.964,6.112.68,9.168.449,10.851.3,12.531.1,14.17,0c1.863-.111,8.1,5.945,9.439,7.5a13.737,13.737,0,0,1,2.341,3.421,23.105,23.105,0,0,1-4.9,10.28c-.25.315-.69.389-.662.832a6.864,6.864,0,0,0,.431,1.262A111.97,111.97,0,0,0,28.683,38Z" transform="translate(143.42 5.006)" fill="#19236b"/><path d="M20.655,15.4a17.055,17.055,0,0,0-9.873-6.579c-.754,2.271-.845,7.468-.655,9.879.146,2.464.586,6.1,2.208,7.88a24.472,24.472,0,0,0,3.738-2.252c1.572-1.231,5.541-4.829,5.4-7.246a5.256,5.256,0,0,0-.813-1.682m10.4,2.79C29.491,26.2,23.805,32.323,17.634,36.3a34.193,34.193,0,0,1-3.654,2.149c-.39.171-6.679.7-7.386.789a32.646,32.646,0,0,1-4.406.017A145.147,145.147,0,0,0,1.916,20.58C1.528,14.079.917,7.587,0,1.165,3.574.65,7.21.435,10.8.17A30.452,30.452,0,0,1,14.439,0a13.221,13.221,0,0,1,3.778,1.4C23.909,4.281,30.1,11.132,31.1,18.193Z" transform="translate(172.517 3.449)" fill="#19236b"/><path d="M16.462,5.038c-3.427,1.49-5.307,4.323-5.057,8.51.375,6.259,5.818,7.217,6.355,16.187.012.2-.376,1.9-.41,2.1-1.218,4.918-4.114,7.807-8.06,10.319a31.045,31.045,0,0,1-8.206-6.23C3.511,34.1,7.144,31.61,6.919,27.816c-.386-6.455-6.378-6.94-6.9-15.609C-.329,6.343,3.786,2.24,8.193,0c2.454.841,6.086,3.541,8.271,5.092Z" transform="translate(203.662 0)" fill="#19236b"/></g><path d="M6.879,8.894a7.148,7.148,0,0,1-3.327-.741,5.319,5.319,0,0,1-2.21-2.077A6.021,6.021,0,0,1,.564,2.992V-2.618A6.021,6.021,0,0,1,1.341-5.7a5.242,5.242,0,0,1,2.21-2.064A7.246,7.246,0,0,1,6.879-8.5,7.428,7.428,0,0,1,10.17-7.8a5.224,5.224,0,0,1,2.21,1.967,5.491,5.491,0,0,1,.789,2.951q0,.219-.291.267l-2.842.17H9.988q-.243,0-.243-.267A2.767,2.767,0,0,0,8.956-4.78a2.832,2.832,0,0,0-2.077-.777,2.864,2.864,0,0,0-2.1.777,2.767,2.767,0,0,0-.789,2.064V3.138a2.736,2.736,0,0,0,.789,2.04,2.864,2.864,0,0,0,2.1.777,2.832,2.832,0,0,0,2.077-.777,2.736,2.736,0,0,0,.789-2.04q0-.267.291-.267l2.842.121a.306.306,0,0,1,.206.073.218.218,0,0,1,.085.17A5.553,5.553,0,0,1,12.38,6.2,5.278,5.278,0,0,1,10.17,8.19,7.32,7.32,0,0,1,6.879,8.894ZM21.6,8.967a6.943,6.943,0,0,1-3.34-.777,5.585,5.585,0,0,1-2.247-2.174,6.35,6.35,0,0,1-.8-3.218V-2.4a6.234,6.234,0,0,1,.8-3.182,5.528,5.528,0,0,1,2.247-2.15A7.032,7.032,0,0,1,21.6-8.5a7.086,7.086,0,0,1,3.364.765,5.528,5.528,0,0,1,2.247,2.15,6.234,6.234,0,0,1,.8,3.182V2.8a6.417,6.417,0,0,1-.8,3.23A5.483,5.483,0,0,1,24.962,8.2,7.086,7.086,0,0,1,21.6,8.967Zm0-2.939a2.878,2.878,0,0,0,2.162-.85,3.1,3.1,0,0,0,.826-2.259V-2.424a3.174,3.174,0,0,0-.814-2.271A2.848,2.848,0,0,0,21.6-5.557a2.818,2.818,0,0,0-2.15.862,3.174,3.174,0,0,0-.814,2.271V2.919a3.13,3.13,0,0,0,.814,2.259A2.838,2.838,0,0,0,21.6,6.028ZM40.275-8.01a.281.281,0,0,1,.085-.206.281.281,0,0,1,.206-.085h2.842a.281.281,0,0,1,.206.085.281.281,0,0,1,.085.206V8.409a.29.29,0,0,1-.291.291H40.664a.348.348,0,0,1-.34-.194L34.033-1.89q-.049-.073-.1-.061t-.049.109l.049,10.25a.29.29,0,0,1-.291.291H30.8a.29.29,0,0,1-.291-.291V-8.01a.281.281,0,0,1,.085-.206A.281.281,0,0,1,30.8-8.3h2.745a.348.348,0,0,1,.34.194L40.154,2.239q.049.073.1.061t.049-.109Zm18-.291a.281.281,0,0,1,.206.085.281.281,0,0,1,.085.206v2.38a.281.281,0,0,1-.085.206.281.281,0,0,1-.206.085H53.925a.107.107,0,0,0-.121.121V8.409a.29.29,0,0,1-.291.291H50.671a.29.29,0,0,1-.291-.291V-5.217a.107.107,0,0,0-.121-.121H46.032a.281.281,0,0,1-.206-.085.281.281,0,0,1-.085-.206V-8.01a.281.281,0,0,1,.085-.206.281.281,0,0,1,.206-.085Zm11.683,17a.344.344,0,0,1-.34-.219L66.579,1.754a.156.156,0,0,0-.146-.1H64.175a.107.107,0,0,0-.121.121V8.409a.29.29,0,0,1-.291.291H60.92a.29.29,0,0,1-.291-.291V-8.01a.281.281,0,0,1,.085-.206A.281.281,0,0,1,60.92-8.3h6.946A5.7,5.7,0,0,1,70.6-7.67a4.428,4.428,0,0,1,1.822,1.8,5.487,5.487,0,0,1,.644,2.7,4.8,4.8,0,0,1-.826,2.83,4.4,4.4,0,0,1-2.307,1.664.116.116,0,0,0-.073.17l3.3,6.874a.373.373,0,0,1,.049.146q0,.194-.267.194ZM64.175-5.363a.107.107,0,0,0-.121.121v4.153a.107.107,0,0,0,.121.121h3.182a2.326,2.326,0,0,0,1.664-.607,2.072,2.072,0,0,0,.644-1.579,2.111,2.111,0,0,0-.644-1.591,2.3,2.3,0,0,0-1.664-.619ZM81.468,8.967a6.943,6.943,0,0,1-3.34-.777,5.585,5.585,0,0,1-2.247-2.174,6.35,6.35,0,0,1-.8-3.218V-2.4a6.234,6.234,0,0,1,.8-3.182,5.528,5.528,0,0,1,2.247-2.15,7.032,7.032,0,0,1,3.34-.765,7.086,7.086,0,0,1,3.364.765,5.528,5.528,0,0,1,2.247,2.15,6.234,6.234,0,0,1,.8,3.182V2.8a6.417,6.417,0,0,1-.8,3.23A5.483,5.483,0,0,1,84.832,8.2,7.086,7.086,0,0,1,81.468,8.967Zm0-2.939a2.878,2.878,0,0,0,2.162-.85,3.1,3.1,0,0,0,.826-2.259V-2.424a3.174,3.174,0,0,0-.814-2.271,2.848,2.848,0,0,0-2.174-.862,2.818,2.818,0,0,0-2.15.862A3.174,3.174,0,0,0,78.5-2.424V2.919a3.13,3.13,0,0,0,.814,2.259A2.838,2.838,0,0,0,81.468,6.028ZM90.673,8.7a.29.29,0,0,1-.291-.291V-8.01a.281.281,0,0,1,.085-.206.281.281,0,0,1,.206-.085h2.842a.281.281,0,0,1,.206.085.281.281,0,0,1,.085.206V5.64a.107.107,0,0,0,.121.121h7.942a.29.29,0,0,1,.291.291V8.409a.29.29,0,0,1-.291.291Zm24.191.194a7.148,7.148,0,0,1-3.327-.741,5.319,5.319,0,0,1-2.21-2.077,6.021,6.021,0,0,1-.777-3.085V-2.618a6.021,6.021,0,0,1,.777-3.085,5.242,5.242,0,0,1,2.21-2.064,7.246,7.246,0,0,1,3.327-.729,7.428,7.428,0,0,1,3.291.692,5.224,5.224,0,0,1,2.21,1.967,5.491,5.491,0,0,1,.789,2.951q0,.219-.291.267l-2.842.17h-.049q-.243,0-.243-.267a2.767,2.767,0,0,0-.789-2.064,2.832,2.832,0,0,0-2.077-.777,2.864,2.864,0,0,0-2.1.777,2.767,2.767,0,0,0-.789,2.064V3.138a2.736,2.736,0,0,0,.789,2.04,2.864,2.864,0,0,0,2.1.777,2.832,2.832,0,0,0,2.077-.777,2.736,2.736,0,0,0,.789-2.04q0-.267.291-.267l2.842.121a.306.306,0,0,1,.206.073.218.218,0,0,1,.085.17,5.553,5.553,0,0,1-.789,2.963,5.278,5.278,0,0,1-2.21,1.992A7.32,7.32,0,0,1,114.864,8.894ZM135.339-5.654a.281.281,0,0,1-.085.206.281.281,0,0,1-.206.085h-7.967a.107.107,0,0,0-.121.121v3.765a.107.107,0,0,0,.121.121H132.3a.281.281,0,0,1,.206.085.281.281,0,0,1,.085.206V1.292a.29.29,0,0,1-.291.291h-5.222a.107.107,0,0,0-.121.121V5.64a.107.107,0,0,0,.121.121h7.967a.29.29,0,0,1,.291.291V8.409a.29.29,0,0,1-.291.291H123.827a.29.29,0,0,1-.291-.291V-8.01a.281.281,0,0,1,.085-.206.281.281,0,0,1,.206-.085h11.221a.281.281,0,0,1,.206.085.281.281,0,0,1,.085.206ZM147.362-8.01a.281.281,0,0,1,.085-.206.281.281,0,0,1,.206-.085H150.5a.281.281,0,0,1,.206.085.281.281,0,0,1,.085.206V8.409a.29.29,0,0,1-.291.291h-2.745a.348.348,0,0,1-.34-.194L141.12-1.89q-.049-.073-.1-.061t-.049.109l.049,10.25a.29.29,0,0,1-.291.291H137.89a.29.29,0,0,1-.291-.291V-8.01a.281.281,0,0,1,.085-.206.281.281,0,0,1,.206-.085h2.745a.348.348,0,0,1,.34.194l6.266,10.347q.049.073.1.061t.049-.109Zm18-.291a.281.281,0,0,1,.206.085.281.281,0,0,1,.085.206v2.38a.281.281,0,0,1-.085.206.281.281,0,0,1-.206.085h-4.348a.107.107,0,0,0-.121.121V8.409a.29.29,0,0,1-.291.291h-2.842a.29.29,0,0,1-.291-.291V-5.217a.107.107,0,0,0-.121-.121h-4.226a.281.281,0,0,1-.206-.085.281.281,0,0,1-.085-.206V-8.01a.281.281,0,0,1,.085-.206.281.281,0,0,1,.206-.085Zm11.683,17a.344.344,0,0,1-.34-.219l-3.036-6.728a.156.156,0,0,0-.146-.1h-2.259a.107.107,0,0,0-.121.121V8.409a.29.29,0,0,1-.291.291h-2.842a.29.29,0,0,1-.291-.291V-8.01a.281.281,0,0,1,.085-.206.281.281,0,0,1,.206-.085h6.946a5.7,5.7,0,0,1,2.732.631,4.428,4.428,0,0,1,1.822,1.8,5.487,5.487,0,0,1,.644,2.7,4.8,4.8,0,0,1-.826,2.83,4.4,4.4,0,0,1-2.307,1.664.116.116,0,0,0-.073.17l3.3,6.874a.373.373,0,0,1,.049.146q0,.194-.267.194ZM171.262-5.363a.107.107,0,0,0-.121.121v4.153a.107.107,0,0,0,.121.121h3.182a2.326,2.326,0,0,0,1.664-.607,2.072,2.072,0,0,0,.644-1.579,2.111,2.111,0,0,0-.644-1.591,2.3,2.3,0,0,0-1.664-.619Zm23.05-.291a.281.281,0,0,1-.085.206.281.281,0,0,1-.206.085h-7.967a.107.107,0,0,0-.121.121v3.765a.107.107,0,0,0,.121.121h5.222a.281.281,0,0,1,.206.085.281.281,0,0,1,.085.206V1.292a.29.29,0,0,1-.291.291h-5.222a.107.107,0,0,0-.121.121V5.64a.107.107,0,0,0,.121.121h7.967a.29.29,0,0,1,.291.291V8.409a.29.29,0,0,1-.291.291H182.8a.29.29,0,0,1-.291-.291V-8.01a.281.281,0,0,1,.085-.206A.281.281,0,0,1,182.8-8.3H194.02a.281.281,0,0,1,.206.085.281.281,0,0,1,.085.206Z" transform="translate(171.961 34.247)" fill="#19236b"/></g></svg>